<svg xmlns="http://www.w3.org/2000/svg" width="1280" height="880" viewBox="0 0 1280 880" role="img" aria-labelledby="title desc">
  <title id="title">Commerce Velocity Platform interface preview</title>
  <desc id="desc">A premium web commerce interface mockup with product cards, analytics, and checkout panels.</desc>
  <defs>
    <linearGradient id="bg" x1="0" y1="0" x2="1" y2="1">
      <stop offset="0" stop-color="#0f1118"/>
      <stop offset="0.5" stop-color="#201c14"/>
      <stop offset="1" stop-color="#090a0d"/>
    </linearGradient>
    <linearGradient id="accent" x1="0" y1="0" x2="1" y2="1">
      <stop offset="0" stop-color="#e8c36d"/>
      <stop offset="1" stop-color="#f09a9a"/>
    </linearGradient>
    <filter id="shadow" x="-40%" y="-40%" width="180%" height="180%">
      <feDropShadow dx="0" dy="30" stdDeviation="30" flood-color="#000000" flood-opacity="0.38"/>
    </filter>
  </defs>
  <rect width="1280" height="880" fill="url(#bg)"/>
  <path d="M0 178C206 236 376 86 602 178C824 268 1002 142 1280 90V0H0Z" fill="#e8c36d" opacity="0.1"/>
  <g opacity="0.13" stroke="#ffffff">
    <path d="M90 130H1190M90 280H1190M90 430H1190M90 580H1190M90 730H1190"/>
    <path d="M170 80V800M330 80V800M490 80V800M650 80V800M810 80V800M970 80V800M1130 80V800"/>
  </g>
  <g filter="url(#shadow)" transform="translate(116 126)">
    <rect width="1048" height="626" rx="28" fill="#10141a" stroke="#ffffff" stroke-opacity="0.14"/>
    <rect x="28" y="28" width="992" height="70" rx="18" fill="#ffffff" opacity="0.055"/>
    <rect x="62" y="55" width="134" height="14" rx="7" fill="#e8c36d"/>
    <rect x="760" y="49" width="88" height="26" rx="13" fill="#ffffff" opacity="0.1"/>
    <rect x="868" y="49" width="112" height="26" rx="13" fill="url(#accent)" opacity="0.92"/>
    <rect x="62" y="144" width="400" height="96" rx="20" fill="#ffffff" opacity="0.055"/>
    <rect x="62" y="282" width="220" height="272" rx="24" fill="#ffffff" opacity="0.06"/>
    <rect x="318" y="282" width="220" height="272" rx="24" fill="#ffffff" opacity="0.06"/>
    <rect x="574" y="282" width="220" height="272" rx="24" fill="#ffffff" opacity="0.06"/>
    <rect x="830" y="144" width="150" height="410" rx="24" fill="#ffffff" opacity="0.055"/>
    <g fill="#ffffff">
      <rect x="96" y="174" width="258" height="18" rx="9" opacity="0.72"/>
      <rect x="96" y="210" width="190" height="10" rx="5" opacity="0.28"/>
      <rect x="94" y="458" width="126" height="12" rx="6" opacity="0.3"/>
      <rect x="350" y="458" width="126" height="12" rx="6" opacity="0.3"/>
      <rect x="606" y="458" width="126" height="12" rx="6" opacity="0.3"/>
    </g>
    <g>
      <rect x="94" y="316" width="156" height="110" rx="18" fill="url(#accent)" opacity="0.9"/>
      <rect x="350" y="316" width="156" height="110" rx="18" fill="#76f7b2" opacity="0.74"/>
      <rect x="606" y="316" width="156" height="110" rx="18" fill="#78dce0" opacity="0.74"/>
      <rect x="862" y="184" width="86" height="12" rx="6" fill="#e8c36d"/>
      <rect x="862" y="224" width="82" height="82" rx="18" fill="#ffffff" opacity="0.08"/>
      <rect x="862" y="334" width="82" height="82" rx="18" fill="#ffffff" opacity="0.08"/>
      <rect x="862" y="452" width="82" height="32" rx="16" fill="url(#accent)"/>
    </g>
  </g>
</svg>
