<svg xmlns="http://www.w3.org/2000/svg" width="1280" height="880" viewBox="0 0 1280 880" role="img" aria-labelledby="title desc">
  <title id="title">SecurePress Plugin Suite interface preview</title>
  <desc id="desc">A WordPress admin plugin interface mockup with modules, permissions, and API status cards.</desc>
  <defs>
    <linearGradient id="bg" x1="0" y1="0" x2="1" y2="1">
      <stop offset="0" stop-color="#0b1216"/>
      <stop offset="0.52" stop-color="#101820"/>
      <stop offset="1" stop-color="#071013"/>
    </linearGradient>
    <linearGradient id="accent" x1="0" y1="0" x2="1" y2="1">
      <stop offset="0" stop-color="#78dce0"/>
      <stop offset="1" stop-color="#76f7b2"/>
    </linearGradient>
    <filter id="shadow" x="-40%" y="-40%" width="180%" height="180%">
      <feDropShadow dx="0" dy="30" stdDeviation="28" flood-color="#000000" flood-opacity="0.36"/>
    </filter>
  </defs>
  <rect width="1280" height="880" fill="url(#bg)"/>
  <g opacity="0.13" stroke="#ffffff">
    <path d="M78 120H1202M78 260H1202M78 400H1202M78 540H1202M78 680H1202"/>
    <path d="M178 80V790M338 80V790M498 80V790M658 80V790M818 80V790M978 80V790M1138 80V790"/>
  </g>
  <g filter="url(#shadow)" transform="translate(118 116)">
    <rect width="1044" height="648" rx="28" fill="#111820" stroke="#ffffff" stroke-opacity="0.14"/>
    <rect width="214" height="648" rx="28" fill="#080c11"/>
    <rect x="0" y="84" width="214" height="1" fill="#ffffff" opacity="0.1"/>
    <rect x="38" y="38" width="112" height="14" rx="7" fill="#78dce0"/>
    <rect x="38" y="132" width="130" height="32" rx="16" fill="url(#accent)" opacity="0.9"/>
    <rect x="38" y="186" width="104" height="12" rx="6" fill="#ffffff" opacity="0.22"/>
    <rect x="38" y="226" width="128" height="12" rx="6" fill="#ffffff" opacity="0.22"/>
    <rect x="38" y="266" width="86" height="12" rx="6" fill="#ffffff" opacity="0.22"/>
    <rect x="254" y="42" width="280" height="44" rx="14" fill="#ffffff" opacity="0.06"/>
    <rect x="784" y="42" width="210" height="44" rx="14" fill="#ffffff" opacity="0.06"/>
    <rect x="254" y="132" width="332" height="150" rx="24" fill="#ffffff" opacity="0.055"/>
    <rect x="622" y="132" width="372" height="150" rx="24" fill="#ffffff" opacity="0.055"/>
    <rect x="254" y="322" width="740" height="258" rx="24" fill="#ffffff" opacity="0.045"/>
    <g fill="#ffffff">
      <rect x="290" y="178" width="162" height="16" rx="8" opacity="0.56"/>
      <rect x="290" y="214" width="240" height="10" rx="5" opacity="0.25"/>
      <rect x="658" y="178" width="168" height="16" rx="8" opacity="0.56"/>
      <rect x="658" y="214" width="266" height="10" rx="5" opacity="0.25"/>
      <rect x="300" y="374" width="184" height="12" rx="6" opacity="0.34"/>
      <rect x="300" y="434" width="320" height="12" rx="6" opacity="0.2"/>
      <rect x="300" y="494" width="260" height="12" rx="6" opacity="0.2"/>
    </g>
    <g>
      <circle cx="548" cy="186" r="30" fill="#78dce0" opacity="0.85"/>
      <circle cx="932" cy="186" r="30" fill="#76f7b2" opacity="0.82"/>
      <rect x="712" y="358" width="220" height="44" rx="22" fill="url(#accent)" opacity="0.88"/>
      <rect x="712" y="430" width="182" height="20" rx="10" fill="#ffffff" opacity="0.1"/>
      <rect x="712" y="478" width="222" height="20" rx="10" fill="#ffffff" opacity="0.1"/>
    </g>
  </g>
</svg>
