<svg width="93" height="93" viewBox="0 0 93 93" fill="none" xmlns="http://www.w3.org/2000/svg">
<path d="M46.8992 1.20254L86.4737 23.7503V68.8457L46.8992 91.3934L7.32471 68.8457V23.7503L46.8992 1.20254Z" fill="#F0F0F0"/>
<path d="M46.298 0L86.3932 23.149V69.4469L46.298 92.5959L6.20275 69.4469V23.149L46.298 0Z" fill="#FDDF30"/>
<path d="M46.298 3.60763L83.2689 24.9528V67.6431L46.298 88.9883L9.32709 67.6431V24.9528L46.298 3.60763Z" fill="#F0F0F0"/>
<path d="M46.2979 8.41781L79.1031 27.3579V65.238L46.2979 84.1781L13.4927 65.238V27.3579L46.2979 8.41781Z" fill="white"/>
<path fill-rule="evenodd" clip-rule="evenodd" d="M46.2979 1.20254L85.3806 23.7503V68.8457L46.2979 91.3934L7.21521 68.8457V23.7503L46.2979 1.20254ZM81.458 26.0133L46.2979 5.72867L11.1379 26.0133V66.5826L46.2979 86.8673L81.458 66.5826V26.0133Z" fill="white"/>
<path d="M1.20251 56.889H92.0595L87.3191 65.5797L92.0595 73.6778H1.20251L6.33791 65.3822L1.20251 56.889Z" fill="#FDDF30"/>
<path d="M38.2494 63.7837C38.1191 63.5436 37.9305 63.3619 37.6836 63.2384C37.4435 63.1081 37.1588 63.0429 36.8296 63.0429C36.2603 63.0429 35.8042 63.2315 35.4613 63.6088C35.1183 63.9792 34.9468 64.4764 34.9468 65.1006C34.9468 65.7659 35.1252 66.2872 35.4818 66.6645C35.8454 67.0348 36.3426 67.22 36.9737 67.22C37.4058 67.22 37.7693 67.1103 38.0642 66.8908C38.366 66.6713 38.5855 66.3558 38.7227 65.9443H36.4901V64.6479H40.3174V66.2838C40.1871 66.7228 39.9642 67.1309 39.6486 67.5081C39.34 67.8853 38.9456 68.1906 38.4655 68.4238C37.9854 68.657 37.4435 68.7736 36.8399 68.7736C36.1266 68.7736 35.4887 68.6193 34.9263 68.3106C34.3707 67.9951 33.9351 67.5595 33.6196 67.004C33.311 66.4484 33.1566 65.8139 33.1566 65.1006C33.1566 64.3873 33.311 63.7528 33.6196 63.1972C33.9351 62.6348 34.3707 62.1993 34.9263 61.8906C35.4818 61.5751 36.1163 61.4173 36.8296 61.4173C37.6938 61.4173 38.4209 61.6265 39.0108 62.0449C39.6075 62.4633 40.0019 63.0429 40.1939 63.7837H38.2494ZM44.7077 68.7942C44.0286 68.7942 43.4045 68.6364 42.8352 68.3209C42.2727 68.0054 41.8235 67.5664 41.4874 67.004C41.1582 66.4347 40.9935 65.7968 40.9935 65.0903C40.9935 64.3838 41.1582 63.7494 41.4874 63.187C41.8235 62.6245 42.2727 62.1856 42.8352 61.87C43.4045 61.5545 44.0286 61.3968 44.7077 61.3968C45.3867 61.3968 46.0074 61.5545 46.5699 61.87C47.1392 62.1856 47.585 62.6245 47.9074 63.187C48.2366 63.7494 48.4012 64.3838 48.4012 65.0903C48.4012 65.7968 48.2366 66.4347 47.9074 67.004C47.5781 67.5664 47.1323 68.0054 46.5699 68.3209C46.0074 68.6364 45.3867 68.7942 44.7077 68.7942ZM44.7077 67.1892C45.2838 67.1892 45.7434 66.9971 46.0863 66.613C46.4361 66.2289 46.611 65.7213 46.611 65.0903C46.611 64.4524 46.4361 63.9449 46.0863 63.5676C45.7434 63.1835 45.2838 62.9915 44.7077 62.9915C44.1247 62.9915 43.6582 63.1801 43.3084 63.5573C42.9655 63.9346 42.794 64.4456 42.794 65.0903C42.794 65.7282 42.9655 66.2392 43.3084 66.6233C43.6582 67.0005 44.1247 67.1892 44.7077 67.1892ZM51.1393 67.3641H53.4439V68.7221H49.38V61.4997H51.1393V67.3641ZM56.9889 61.4997C57.7503 61.4997 58.4156 61.6506 58.9849 61.9523C59.5542 62.2541 59.9931 62.6794 60.3018 63.2281C60.6173 63.77 60.7751 64.3976 60.7751 65.1109C60.7751 65.8174 60.6173 66.445 60.3018 66.9937C59.9931 67.5424 59.5507 67.9677 58.9746 68.2694C58.4053 68.5712 57.7434 68.7221 56.9889 68.7221H54.2831V61.4997H56.9889ZM56.8758 67.1994C57.5411 67.1994 58.0589 67.0177 58.4293 66.6542C58.7997 66.2906 58.9849 65.7762 58.9849 65.1109C58.9849 64.4456 58.7997 63.9277 58.4293 63.5573C58.0589 63.187 57.5411 63.0018 56.8758 63.0018H56.0424V67.1994H56.8758Z" fill="#091E42"/>
<path d="M21.3473 47.3606H19.4013L19.0793 48.2916H18.0503L19.8073 43.3986H20.9483L22.7053 48.2916H21.6693L21.3473 47.3606ZM21.0813 46.5766L20.3743 44.5326L19.6673 46.5766H21.0813ZM26.344 44.8756C26.232 44.6703 26.078 44.5139 25.882 44.4066C25.686 44.2993 25.4574 44.2456 25.196 44.2456C24.9067 44.2456 24.65 44.3109 24.426 44.4416C24.202 44.5723 24.027 44.7589 23.901 45.0016C23.775 45.2443 23.712 45.5243 23.712 45.8416C23.712 46.1683 23.775 46.4529 23.901 46.6956C24.0317 46.9383 24.2114 47.1249 24.44 47.2556C24.6687 47.3863 24.9347 47.4516 25.238 47.4516C25.6114 47.4516 25.917 47.3536 26.155 47.1576C26.393 46.9569 26.5494 46.6793 26.624 46.3246H24.944V45.5756H27.59V46.4296C27.5247 46.7703 27.3847 47.0853 27.17 47.3746C26.9554 47.6639 26.6777 47.8973 26.337 48.0746C26.001 48.2473 25.623 48.3336 25.203 48.3336C24.7317 48.3336 24.3047 48.2286 23.922 48.0186C23.544 47.8039 23.2454 47.5076 23.026 47.1296C22.8114 46.7516 22.704 46.3223 22.704 45.8416C22.704 45.3609 22.8114 44.9316 23.026 44.5536C23.2454 44.1709 23.544 43.8746 23.922 43.6646C24.3047 43.4499 24.7294 43.3426 25.196 43.3426C25.7467 43.3426 26.225 43.4779 26.631 43.7486C27.037 44.0146 27.317 44.3903 27.471 44.8756H26.344ZM29.0151 44.1966V45.4216H30.6601V46.1986H29.0151V47.4936H30.8701V48.2916H28.0351V43.3986H30.8701V44.1966H29.0151ZM35.6597 48.2916H34.6797L32.4607 44.9386V48.2916H31.4807V43.3986H32.4607L34.6797 46.7586V43.3986H35.6597V48.2916ZM36.1101 45.8416C36.1101 45.3609 36.2175 44.9316 36.4321 44.5536C36.6515 44.1709 36.9478 43.8746 37.3211 43.6646C37.6991 43.4499 38.1215 43.3426 38.5881 43.3426C39.1341 43.3426 39.6125 43.4826 40.0231 43.7626C40.4338 44.0426 40.7208 44.4299 40.8841 44.9246H39.7571C39.6451 44.6913 39.4865 44.5163 39.2811 44.3996C39.0805 44.2829 38.8471 44.2246 38.5811 44.2246C38.2965 44.2246 38.0421 44.2923 37.8181 44.4276C37.5988 44.5583 37.4261 44.7449 37.3001 44.9876C37.1788 45.2303 37.1181 45.5149 37.1181 45.8416C37.1181 46.1636 37.1788 46.4483 37.3001 46.6956C37.4261 46.9383 37.5988 47.1273 37.8181 47.2626C38.0421 47.3933 38.2965 47.4586 38.5811 47.4586C38.8471 47.4586 39.0805 47.4003 39.2811 47.2836C39.4865 47.1623 39.6451 46.9849 39.7571 46.7516H40.8841C40.7208 47.2509 40.4338 47.6406 40.0231 47.9206C39.6171 48.1959 39.1388 48.3336 38.5881 48.3336C38.1215 48.3336 37.6991 48.2286 37.3211 48.0186C36.9478 47.8039 36.6515 47.5076 36.4321 47.1296C36.2175 46.7516 36.1101 46.3223 36.1101 45.8416ZM45.0462 43.4056L43.3942 46.5906V48.2916H42.4142V46.5906L40.7552 43.4056H41.8612L42.9112 45.6386L43.9542 43.4056H45.0462ZM50.2823 44.9176C50.2823 45.1789 50.2193 45.4239 50.0933 45.6526C49.972 45.8813 49.7783 46.0656 49.5123 46.2056C49.251 46.3456 48.9197 46.4156 48.5183 46.4156H47.6993V48.2916H46.7193V43.4056H48.5183C48.8963 43.4056 49.2183 43.4709 49.4843 43.6016C49.7503 43.7323 49.9487 43.9119 50.0793 44.1406C50.2147 44.3693 50.2823 44.6283 50.2823 44.9176ZM48.4763 45.6246C48.747 45.6246 48.9477 45.5639 49.0783 45.4426C49.209 45.3166 49.2743 45.1416 49.2743 44.9176C49.2743 44.4416 49.0083 44.2036 48.4763 44.2036H47.6993V45.6246H48.4763ZM52.9941 47.3606H51.0481L50.7261 48.2916H49.6971L51.4541 43.3986H52.5951L54.3521 48.2916H53.3161L52.9941 47.3606ZM52.7281 46.5766L52.0211 44.5326L51.3141 46.5766H52.7281ZM57.2489 48.2916L56.1709 46.3876H55.7089V48.2916H54.7289V43.4056H56.5629C56.9409 43.4056 57.2629 43.4733 57.5289 43.6086C57.7949 43.7393 57.9932 43.9189 58.1239 44.1476C58.2592 44.3716 58.3269 44.6236 58.3269 44.9036C58.3269 45.2256 58.2335 45.5173 58.0469 45.7786C57.8602 46.0353 57.5825 46.2126 57.2139 46.3106L58.3829 48.2916H57.2489ZM55.7089 45.6526H56.5279C56.7939 45.6526 56.9922 45.5896 57.1229 45.4636C57.2535 45.3329 57.3189 45.1533 57.3189 44.9246C57.3189 44.7006 57.2535 44.5279 57.1229 44.4066C56.9922 44.2806 56.7939 44.2176 56.5279 44.2176H55.7089V45.6526ZM61.9783 43.4056V44.1966H60.6763V48.2916H59.6963V44.1966H58.3942V43.4056H61.9783ZM66.5923 48.2916H65.6123L63.3933 44.9386V48.2916H62.4133V43.3986H63.3933L65.6123 46.7586V43.3986H66.5923V48.2916ZM68.2608 44.1966V45.4216H69.9058V46.1986H68.2608V47.4936H70.1158V48.2916H67.2808V43.3986H70.1158V44.1966H68.2608ZM73.2463 48.2916L72.1683 46.3876H71.7063V48.2916H70.7263V43.4056H72.5603C72.9383 43.4056 73.2603 43.4733 73.5263 43.6086C73.7923 43.7393 73.9907 43.9189 74.1213 44.1476C74.2567 44.3716 74.3243 44.6236 74.3243 44.9036C74.3243 45.2256 74.231 45.5173 74.0443 45.7786C73.8577 46.0353 73.58 46.2126 73.2113 46.3106L74.3803 48.2916H73.2463ZM71.7063 45.6526H72.5253C72.7913 45.6526 72.9897 45.5896 73.1203 45.4636C73.251 45.3329 73.3163 45.1533 73.3163 44.9246C73.3163 44.7006 73.251 44.5279 73.1203 44.4066C72.9897 44.2806 72.7913 44.2176 72.5253 44.2176H71.7063V45.6526Z" fill="#253858"/>
<path d="M30.125 30.4056C29.1526 30.4056 28.7035 31.1263 28.7035 31.8229C28.7035 32.5191 29.1278 33.2156 30.125 33.2156C30.4869 33.2156 30.8733 33.0668 31.1482 32.8053L31.5716 33.2156C31.173 33.6009 30.661 33.7879 30.1249 33.7879C28.7281 33.7879 28.1046 32.8301 28.1046 31.8229C28.1046 30.8156 28.7529 29.8213 30.1249 29.8213C30.6361 29.8213 31.1352 30.0081 31.5346 30.4056L31.1232 30.8037C30.8484 30.5294 30.4869 30.4056 30.125 30.4056ZM31.9213 33.7006V29.8709H32.5443V33.1281H34.5646V33.7005H31.9213V33.7006ZM36.9229 33.7879C35.5876 33.7879 34.9513 32.8173 34.9513 31.8099C34.9513 30.6417 35.7744 29.8083 36.9229 29.8083C38.2441 29.8083 38.8918 30.7659 38.8918 31.8099C38.8918 32.8422 38.2549 33.7879 36.9229 33.7879ZM36.9337 30.3684C36.0492 30.3684 35.5628 30.9892 35.5628 31.8228C35.5749 32.4942 35.9742 33.2273 36.9229 33.2273C37.8821 33.2273 38.2808 32.556 38.2808 31.8228C38.2808 31.1137 37.8695 30.3806 36.9337 30.3684ZM40.8861 33.7747C40.0262 33.7499 39.3031 33.2025 39.3031 32.1207V29.8829H39.9158V32.1207C39.9158 32.8173 40.3254 33.1908 40.886 33.2156C41.4985 33.2522 41.9471 32.8549 41.9471 32.1207V29.8829H42.5578V32.1207C42.5579 33.2522 41.8089 33.8126 40.8861 33.7747ZM44.5913 33.7006C44.1302 33.7006 43.5929 33.7006 43.132 33.7006V29.8709H44.5913C45.9016 29.8709 46.4991 30.8036 46.5105 31.7484C46.5363 32.7181 45.9252 33.7006 44.5913 33.7006ZM44.5913 30.455H43.7426V33.1161H44.5913C45.5249 33.1161 45.9252 32.4321 45.9125 31.7484C45.9016 31.1017 45.5008 30.455 44.5913 30.455ZM51.0013 33.7128H50.4516L49.9404 32.3572L49.5288 31.0766L49.1046 32.3703L48.6065 33.713H48.0714L46.6729 29.883H47.3592L48.3333 32.8301L49.33 29.883H49.7283L50.7394 32.8301L51.6993 29.883H52.3854L51.0013 33.7128ZM55.7143 33.7128L55.3413 32.9045H53.2584L52.8964 33.7128H52.2487L53.9684 29.8829H54.6421L56.3634 33.7128H55.7143ZM54.3043 30.5175L53.4961 32.3455H55.1162L54.3043 30.5175ZM58.0594 32.1339V33.7006H57.4485V32.1339L55.9651 29.8959V29.8709H56.6994L57.7473 31.5615L58.8434 29.8709H59.5815V29.8959L58.0594 32.1339ZM61.4268 30.3059C60.9137 30.3059 60.5412 30.5175 60.5412 30.8902C60.5412 31.2636 60.9656 31.3634 61.4745 31.4373C62.2607 31.5499 63.0229 31.7603 63.0229 32.6184C63.0229 33.4768 62.2365 33.7995 61.4268 33.7995C60.6906 33.7995 60.1294 33.576 59.7805 32.9294L60.242 32.6183C60.5154 33.0781 60.9898 33.2521 61.4376 33.2521C61.899 33.2521 62.4119 33.1033 62.4119 32.6183C62.4119 32.208 61.9618 32.0592 61.4268 31.9843C60.6664 31.8851 59.9434 31.6856 59.9434 30.8653C59.9434 30.0695 60.7274 29.7714 61.4268 29.7714C61.9745 29.7714 62.5357 29.9075 62.8606 30.418L62.3752 30.729C62.1868 30.468 61.8253 30.3059 61.4268 30.3059Z" fill="#2F39BF"/>
<path d="M46.6191 35.1865C46.3857 35.0227 46.0968 34.938 45.7577 34.938H45.0243V37.3108H45.7577C46.0968 37.3108 46.3857 37.2204 46.6191 37.0509C46.7469 36.9605 46.8468 36.8306 46.9136 36.6723C46.9802 36.5142 47.0192 36.3221 47.0192 36.113C47.0192 35.9041 46.9858 35.7176 46.9136 35.5594C46.8468 35.4011 46.7469 35.2769 46.6191 35.1865ZM45.4522 35.3447H45.6855C45.9411 35.3447 46.1522 35.3956 46.3134 35.4972C46.4913 35.6046 46.5801 35.8136 46.5801 36.113C46.5801 36.4238 46.4913 36.6385 46.3134 36.7571C46.1578 36.8588 45.9522 36.9153 45.6911 36.9153H45.4577V35.3447H45.4522Z" fill="#2F39BF"/>
<path d="M47.4639 34.9154C47.3917 34.9154 47.3305 34.9436 47.2861 34.9888C47.2361 35.0396 47.2139 35.0961 47.2139 35.1696C47.2139 35.243 47.2417 35.3052 47.2861 35.356C47.3361 35.4068 47.3972 35.4295 47.4694 35.4295C47.5417 35.4295 47.6028 35.4013 47.6528 35.356C47.7028 35.3052 47.725 35.243 47.725 35.1696C47.725 35.0961 47.6972 35.0341 47.6528 34.9888C47.5972 34.938 47.5362 34.9154 47.4639 34.9154Z" fill="#2F39BF"/>
<path d="M47.664 35.6442H47.2527V37.3165H47.664V35.6442Z" fill="#2F39BF"/>
<path d="M49.0975 35.7854C48.9753 35.6724 48.8363 35.6046 48.6808 35.6046C48.4529 35.6046 48.2639 35.6836 48.1195 35.8419C47.9694 36 47.8972 36.1978 47.8972 36.4408C47.8972 36.678 47.9694 36.8757 48.114 37.0396C48.2585 37.1978 48.4529 37.2769 48.6808 37.2769C48.8419 37.2769 48.9753 37.2317 49.0864 37.1413V37.1808C49.0864 37.322 49.0475 37.4295 48.9753 37.5029C48.9031 37.5763 48.803 37.6159 48.6808 37.6159C48.4918 37.6159 48.3695 37.5425 48.2251 37.3391L47.9416 37.6159L47.9472 37.6272C48.0084 37.712 48.1029 37.7967 48.2251 37.8815C48.3473 37.9605 48.503 38 48.6862 38C48.9308 38 49.1309 37.9209 49.2754 37.774C49.4198 37.6215 49.4976 37.4181 49.4976 37.1696V35.6442H49.0919V35.7854H49.0975ZM48.9863 36.7684C48.9141 36.8532 48.8197 36.8928 48.703 36.8928C48.5862 36.8928 48.4918 36.8532 48.4196 36.7684C48.3473 36.6837 48.3139 36.5764 48.3139 36.4408C48.3139 36.3051 48.3473 36.1921 48.4196 36.1074C48.4918 36.0226 48.5862 35.9831 48.703 35.9831C48.8197 35.9831 48.9141 36.0226 48.9863 36.1074C49.0586 36.1921 49.0975 36.2995 49.0975 36.4408C49.0975 36.5764 49.0586 36.6837 48.9863 36.7684Z" fill="#2F39BF"/>
<path d="M50.1978 35.6442H49.7865V37.3165H50.1978V35.6442Z" fill="#2F39BF"/>
<path d="M49.9976 34.9154C49.9254 34.9154 49.8642 34.9436 49.8198 34.9888C49.7698 35.0396 49.7476 35.0961 49.7476 35.1696C49.7476 35.243 49.7754 35.3052 49.8198 35.356C49.8698 35.4068 49.9309 35.4295 50.0031 35.4295C50.0754 35.4295 50.1365 35.4013 50.1865 35.356C50.2365 35.3052 50.2587 35.243 50.2587 35.1696C50.2587 35.0961 50.2309 35.0341 50.1865 34.9888C50.1253 34.938 50.0643 34.9154 49.9976 34.9154Z" fill="#2F39BF"/>
<path d="M51.081 35.1921H50.6753V35.644H50.442V36.0282H50.6809V36.7231C50.6809 36.9378 50.7253 37.0961 50.8087 37.1863C50.8921 37.2768 51.0422 37.322 51.2533 37.322C51.3199 37.322 51.3867 37.322 51.4533 37.3164H51.4699V36.9321L51.3255 36.9378C51.2255 36.9378 51.1588 36.9209 51.131 36.887C51.0976 36.853 51.081 36.7796 51.081 36.6667V36.0282H51.4645V35.644H51.081V35.1921Z" fill="#2F39BF"/>
<path d="M53.7153 34.9436H53.3042V37.3165H53.7153V34.9436Z" fill="#2F39BF"/>
<path d="M57.7719 36.7176C57.6996 36.8024 57.6218 36.8758 57.5662 36.9154C57.5106 36.955 57.4384 36.9719 57.3495 36.9719C57.2273 36.9719 57.1273 36.9267 57.0495 36.8363C56.9717 36.7459 56.9272 36.6272 56.9272 36.486C56.9272 36.3447 56.9661 36.2261 57.0439 36.1358C57.1217 36.0453 57.2217 36.0001 57.344 36.0001C57.4774 36.0001 57.6162 36.0848 57.7385 36.2261L58.0108 35.9606C57.8329 35.7233 57.6051 35.6159 57.3328 35.6159C57.1051 35.6159 56.9105 35.7007 56.7494 35.8645C56.5882 36.0283 56.5104 36.2374 56.5104 36.486C56.5104 36.7345 56.5938 36.9436 56.7494 37.1074C56.9105 37.2712 57.1051 37.356 57.3328 37.356C57.6329 37.356 57.8719 37.2261 58.0386 36.9832L57.7719 36.7176Z" fill="#2F39BF"/>
<path d="M59.4832 35.8758C59.422 35.7911 59.3442 35.7232 59.2442 35.6781C59.1441 35.6271 59.0331 35.6046 58.9052 35.6046C58.6718 35.6046 58.4885 35.6893 58.3441 35.8645C58.2051 36.034 58.1384 36.2431 58.1384 36.4916C58.1384 36.7458 58.2162 36.9548 58.3663 37.1131C58.5163 37.2712 58.7164 37.3503 58.9608 37.3503C59.2387 37.3503 59.4664 37.2373 59.6388 37.0113L59.6498 37.0001L59.3776 36.7345C59.3554 36.7627 59.3165 36.8023 59.2831 36.8306C59.2442 36.8701 59.2053 36.8983 59.1609 36.921C59.0997 36.9548 59.0275 36.9662 58.9497 36.9662C58.833 36.9662 58.7386 36.9322 58.6664 36.8645C58.5996 36.8023 58.5607 36.7176 58.5496 36.6103H59.6443L59.6498 36.4577C59.6498 36.3504 59.6332 36.2431 59.6054 36.147C59.5832 36.0509 59.5388 35.9606 59.4832 35.8758ZM58.5774 36.2713C58.5996 36.1921 58.633 36.1244 58.683 36.0736C58.7386 36.0171 58.8108 35.9888 58.8997 35.9888C58.9997 35.9888 59.0775 36.0171 59.1275 36.0736C59.1775 36.1244 59.2053 36.1921 59.2109 36.2713H58.5774Z" fill="#2F39BF"/>
<path d="M61.0613 35.7684C60.9335 35.6611 60.7612 35.6046 60.5445 35.6046C60.4057 35.6046 60.2778 35.6328 60.1612 35.695C60.0556 35.7515 59.95 35.8419 59.8833 35.9606L59.8889 35.9661L60.1556 36.226C60.2667 36.0509 60.3835 35.9888 60.5445 35.9888C60.6335 35.9888 60.7002 36.0114 60.7558 36.0565C60.8112 36.1018 60.839 36.1639 60.839 36.2374V36.3164C60.739 36.2825 60.6335 36.2713 60.5335 36.2713C60.3279 36.2713 60.1612 36.3221 60.0334 36.4181C59.9055 36.5142 59.8444 36.6554 59.8444 36.8363C59.8444 36.9944 59.9 37.1188 60.0056 37.2147C60.1112 37.3051 60.2445 37.3503 60.4057 37.3503C60.5612 37.3503 60.7112 37.2882 60.8446 37.1752V37.3108H61.2503V36.2374C61.2503 36.034 61.1891 35.8758 61.0613 35.7684ZM60.3279 36.6723C60.3723 36.6385 60.4389 36.6215 60.5223 36.6215C60.6223 36.6215 60.728 36.6441 60.8334 36.6837V36.8475C60.7446 36.9322 60.6223 36.9775 60.4779 36.9775C60.4057 36.9775 60.3501 36.9605 60.3112 36.9266C60.2723 36.8928 60.2556 36.8532 60.2556 36.8023C60.2612 36.7515 60.2834 36.7062 60.3279 36.6723Z" fill="#2F39BF"/>
<path d="M62.7894 35.8023C62.6727 35.6724 62.5116 35.6046 62.3059 35.6046C62.1449 35.6046 62.0114 35.6498 61.9114 35.7458V35.6442H61.5057V37.3165H61.917V36.3898C61.917 36.2656 61.9448 36.1639 62.0059 36.0905C62.0615 36.0171 62.1449 35.9831 62.2503 35.9831C62.3449 35.9831 62.4171 36.0114 62.4671 36.0791C62.5172 36.1413 62.545 36.2317 62.545 36.3447V37.3108H62.9561V36.3447C62.9617 36.113 62.9005 35.9323 62.7894 35.8023Z" fill="#2F39BF"/>
<path d="M52.8538 35.7684C52.7259 35.6611 52.5537 35.6046 52.3369 35.6046C52.198 35.6046 52.0702 35.6328 51.9535 35.695C51.8479 35.7515 51.7423 35.8419 51.6757 35.9606L51.6813 35.9661L51.948 36.226C52.0592 36.0509 52.1758 35.9888 52.3369 35.9888C52.4259 35.9888 52.4925 36.0114 52.5481 36.0565C52.6037 36.1018 52.6315 36.1639 52.6315 36.2374V36.3164C52.5315 36.2825 52.4259 36.2713 52.3258 36.2713C52.1202 36.2713 51.9535 36.3221 51.8257 36.4181C51.6979 36.5142 51.6368 36.6554 51.6368 36.8363C51.6368 36.9944 51.6923 37.1188 51.7979 37.2147C51.9035 37.3051 52.0369 37.3503 52.198 37.3503C52.3536 37.3503 52.5037 37.2882 52.637 37.1752V37.3108H53.0427V36.2374C53.0427 36.034 52.9816 35.8758 52.8538 35.7684ZM52.1202 36.6723C52.1646 36.6385 52.2314 36.6215 52.3147 36.6215C52.4147 36.6215 52.5203 36.6441 52.6259 36.6837V36.8475C52.5369 36.9322 52.4147 36.9775 52.2703 36.9775C52.198 36.9775 52.1424 36.9605 52.1036 36.9266C52.0646 36.8928 52.048 36.8532 52.048 36.8023C52.0536 36.7515 52.0758 36.7062 52.1202 36.6723Z" fill="#2F39BF"/>
<path d="M55.1434 37.3505C54.4821 37.3505 53.9431 36.8025 53.9431 36.1302C53.9431 35.4578 54.4821 34.9099 55.1434 34.9099C55.8046 34.9099 56.3436 35.4578 56.3436 36.1302C56.3436 36.8025 55.8102 37.3505 55.1434 37.3505ZM55.1434 35.3336C54.7155 35.3336 54.3654 35.6895 54.3654 36.1246C54.3654 36.5595 54.7155 36.9155 55.1434 36.9155C55.5712 36.9155 55.9213 36.5595 55.9213 36.1246C55.9213 35.6895 55.5768 35.3336 55.1434 35.3336Z" fill="#2F39BF"/>
<path d="M42.6112 37.3367C42.4985 37.3367 42.4086 37.3006 42.3412 37.2282V37.315H42.1237V35.9314H42.3451V36.4189C42.4175 36.3558 42.5063 36.3242 42.6112 36.3242C42.7471 36.3242 42.8584 36.3722 42.9452 36.4683C43.032 36.5644 43.0754 36.6854 43.0754 36.8314C43.0754 36.9775 43.032 37.0985 42.9452 37.1946C42.8572 37.2893 42.7458 37.3367 42.6112 37.3367ZM42.4092 37.0525C42.4544 37.1104 42.5166 37.1393 42.5956 37.1393C42.6746 37.1393 42.7368 37.1104 42.7821 37.0525C42.8274 36.9946 42.8501 36.9209 42.8501 36.8314C42.8501 36.742 42.8274 36.6682 42.7821 36.6104C42.7368 36.5525 42.6746 36.5236 42.5956 36.5236C42.5166 36.5236 42.4544 36.5525 42.4092 36.6104C42.3639 36.6682 42.3412 36.742 42.3412 36.8314C42.3412 36.9209 42.3639 36.9946 42.4092 37.0525ZM44.1683 36.3479L43.6362 37.6979H43.4031L43.5507 37.3268L43.1739 36.3479H43.4264L43.675 37.0466L43.9275 36.3479H44.1683Z" fill="#2F39BF"/>
<path fill-rule="evenodd" clip-rule="evenodd" d="M43.3998 26.1991C43.3187 26.1112 43.252 26.042 43.1887 25.9699C42.9491 25.6965 42.7548 25.3927 42.6111 25.0567C42.5881 25.0028 42.5599 24.9832 42.5015 24.9843C42.2943 24.9881 42.087 24.9864 41.8797 24.9856C41.6968 24.985 41.5999 24.8921 41.5946 24.7072C41.5908 24.5834 41.5907 24.4593 41.5947 24.3355C41.6005 24.1536 41.6962 24.0626 41.8751 24.0623C42.0247 24.062 42.1743 24.0623 42.3334 24.0623C42.296 23.648 42.3025 23.2448 42.39 22.8335C42.3443 22.8335 42.3091 22.8335 42.2738 22.8335C40.4369 22.8335 38.6001 22.8336 36.7631 22.8334C36.513 22.8334 36.3276 22.6848 36.2823 22.4497C36.2288 22.172 36.4373 21.9067 36.7178 21.8959C36.7463 21.8948 36.7748 21.8955 36.8033 21.8955C38.749 21.8955 40.6947 21.8951 42.6404 21.8972C42.7121 21.8973 42.7499 21.874 42.7854 21.8116C43.0245 21.3907 43.3383 21.0368 43.7237 20.749C43.7439 20.7339 43.7633 20.7174 43.7807 20.6823C43.7493 20.6823 43.7177 20.6823 43.6861 20.6823C42.2042 20.6823 40.7223 20.6832 39.2403 20.68C39.1498 20.6798 39.0518 20.6636 38.9703 20.6259C38.7769 20.5366 38.6809 20.3114 38.7296 20.1026C38.7777 19.8962 38.9655 19.7448 39.1777 19.7446C39.8305 19.7439 40.4834 19.7443 41.1363 19.7443C42.3306 19.7443 43.5249 19.7437 44.7193 19.746C44.7893 19.7461 44.8233 19.7287 44.8468 19.6578C44.968 19.291 45.1446 18.9523 45.3658 18.6376C45.3863 18.6084 45.4063 18.5787 45.436 18.5354C45.3872 18.5331 45.3528 18.5301 45.3183 18.5301C43.5851 18.5298 41.8519 18.5309 40.1186 18.5272C40.0211 18.527 39.9145 18.5069 39.8281 18.4633C39.6423 18.3694 39.5566 18.1446 39.6095 17.946C39.6669 17.7296 39.8427 17.593 40.0672 17.593C42.1606 17.5927 44.2539 17.5926 46.3473 17.594C46.4148 17.594 46.4713 17.5782 46.5291 17.5427C47.0657 17.213 47.6465 17.0296 48.2732 16.9879C50.0959 16.8664 51.7278 18.0852 52.2407 19.8532C52.27 19.9539 52.2971 20.0558 52.3164 20.1589C52.3265 20.2132 52.3483 20.2372 52.3996 20.2555C53.5359 20.6603 54.2905 21.4503 54.6248 22.6232C55.1628 24.5108 54.1064 26.4474 52.3089 26.9869C52.027 27.0715 51.7388 27.1198 51.4452 27.1214C50.1194 27.1288 48.7937 27.1359 47.4679 27.1371C44.8461 27.1395 42.2242 27.1381 39.6023 27.1361C39.5239 27.136 39.4401 27.1249 39.3679 27.0957C39.1642 27.0131 39.0577 26.7973 39.0982 26.5748C39.1362 26.3658 39.3227 26.2069 39.5395 26.1992C39.5628 26.1984 39.5861 26.199 39.6095 26.199C40.8323 26.199 42.0551 26.199 43.278 26.199C43.311 26.1991 43.3441 26.1991 43.3998 26.1991Z" fill="#2F39BF"/>
<path fill-rule="evenodd" clip-rule="evenodd" d="M38.4977 24.9858C37.9696 24.9858 37.4416 24.9859 36.9134 24.9858C36.6999 24.9857 36.6096 24.8958 36.6087 24.6812C36.6081 24.5573 36.6066 24.4335 36.6103 24.3097C36.6147 24.1642 36.7158 24.0631 36.8592 24.0629C37.9542 24.062 39.0492 24.062 40.1442 24.0631C40.2879 24.0632 40.3911 24.1687 40.3956 24.3191C40.3998 24.4612 40.3999 24.6037 40.3957 24.7458C40.3916 24.8875 40.277 24.9853 40.1208 24.9856C39.7584 24.9864 39.3959 24.9859 39.0336 24.9859C38.8549 24.9858 38.6764 24.9858 38.4977 24.9858Z" fill="#2F39BF"/>
</svg>
